<svg xmlns="http://www.w3.org/2000/svg" width="547.437" height="126.834" viewBox="0 0 547.437 126.834">
  <g id="shoptimize-Logo-2020_Logo-white" transform="translate(-119.41 -473.908)">
    <path id="Path_8427" data-name="Path 8427" d="M308.387,591.205q10.145,0,10.138-6.49a3.306,3.306,0,0,0-2.011-3.058,24.7,24.7,0,0,0-5.069-1.871q-3.071-.825-6.625-1.69a30.443,30.443,0,0,1-6.631-2.427,15.275,15.275,0,0,1-5.069-4.057,9.56,9.56,0,0,1-2.012-6.168,16.387,16.387,0,0,1,1.093-6.3,12.28,12.28,0,0,1,3.292-4.573q4.834-4.11,13.41-4.11a39.1,39.1,0,0,1,13.242,2.286,3.835,3.835,0,0,1,2.682,3.694,3.352,3.352,0,0,1-1.053,2.333,2.944,2.944,0,0,1-2.058,1.093,8.406,8.406,0,0,1-2.461-.456,32.191,32.191,0,0,0-9.595-1.341c-3.473,0-6.1.61-7.905,1.824a5.22,5.22,0,0,0-2.682,4.385,4.138,4.138,0,0,0,2.058,3.8,20.446,20.446,0,0,0,5.069,2.058q3.017.815,6.625,1.643a30.873,30.873,0,0,1,6.618,2.28q7.134,3.661,7.134,11.332a11.787,11.787,0,0,1-4.392,9.5q-4.747,4.023-13.242,4.023a33.633,33.633,0,0,1-16.629-4.11,3.266,3.266,0,0,1-1.556-2.736,4.124,4.124,0,0,1,1-2.789,2.95,2.95,0,0,1,2.2-1.147,7.223,7.223,0,0,1,2.836.738,28.044,28.044,0,0,0,11.6,2.374M356.8,558.162q-8.046,0-14.986,8.777v27.4a3.9,3.9,0,0,1-1.227,2.923,4.138,4.138,0,0,1-2.97,1.193,4.063,4.063,0,0,1-4.11-4.117v-59.32a4.078,4.078,0,0,1,1.187-3.017,3.968,3.968,0,0,1,2.923-1.187,4.131,4.131,0,0,1,2.97,1.187,4.023,4.023,0,0,1,1.227,3.017V558.86a32.016,32.016,0,0,1,6.309-5.364,19.873,19.873,0,0,1,9.917-3.011,18.218,18.218,0,0,1,7.718,1.415,15.1,15.1,0,0,1,5.116,3.882,18.724,18.724,0,0,1,4.284,12.612v25.942a3.9,3.9,0,0,1-1.227,2.923,4.151,4.151,0,0,1-2.97,1.194,4.063,4.063,0,0,1-4.11-4.117V569.28q0-5.21-2.327-8.18c-1.562-2.012-4.13-2.971-7.724-2.971m48.947-7.67q10.6,0,16.991,6.665,6.41,6.772,6.4,17.547t-6.4,17.541q-6.4,6.672-16.991,6.665t-16.991-6.665q-6.4-6.671-6.4-17.541t6.4-17.547q6.3-6.664,16.991-6.665M395.566,587.5a13.632,13.632,0,0,0,4.841,2.883,15.97,15.97,0,0,0,10.6,0,14.4,14.4,0,0,0,4.881-2.836q4.942-4.472,4.941-12.974,0-8.228-4.941-12.787a14.483,14.483,0,0,0-10.138-3.748q-9.856,0-13.705,8.864a22.475,22.475,0,0,0,0,15.422,14.75,14.75,0,0,0,3.52,5.156m49.571-30.079q6.772-6.953,15.623-6.946a20.7,20.7,0,0,1,15.167,6.3q6.94,6.953,6.947,17.909,0,11.144-6.947,18a21.1,21.1,0,0,1-15.214,6.209q-8.811,0-15.576-6.94v23.3a4.11,4.11,0,0,1-1.187,3.017,4.164,4.164,0,0,1-7.127-3.017V555.025a3.962,3.962,0,0,1,1.193-2.923,4.157,4.157,0,0,1,7.121,2.923Zm0,26.861q6.215,6.853,14.443,6.846,10.413,0,13.88-9.32a21.339,21.339,0,0,0,1.1-7.121q0-7.865-4.2-12.337-4.023-4.117-10.782-4.11-8.227,0-14.443,6.853Zm62.431,7.308a10.352,10.352,0,0,0,3.473-.416,6.265,6.265,0,0,1,2.286-.409,3.241,3.241,0,0,1,2.239.912,3.548,3.548,0,0,1,1.006,2.742,2.749,2.749,0,0,1-1.83,2.682,16.646,16.646,0,0,1-6.705,1.824,43.365,43.365,0,0,1-5.076-.268,10.8,10.8,0,0,1-4.379-1.556q-5.015-2.923-5.022-10.232V558.5h-6.517a1.535,1.535,0,0,1-1.73-1.737,2.072,2.072,0,0,1,.825-1.556l12.425-12.143a2.267,2.267,0,0,1,1.555-.825,1.61,1.61,0,0,1,1.227.543,1.823,1.823,0,0,1,.5,1.281v7.309h10.339a3.567,3.567,0,1,1,0,7.128H501.862v27.592c0,2.313.67,3.9,2.105,4.747a6.979,6.979,0,0,0,3.6.738m14.483-36.456a4.082,4.082,0,0,1,1.18-3.017,4.331,4.331,0,0,1,5.941,0,4.088,4.088,0,0,1,1.187,3.017V594.31a3.969,3.969,0,0,1-1.187,2.923,4.292,4.292,0,0,1-5.941,0,3.962,3.962,0,0,1-1.18-2.923Zm9.132-17.909a4.694,4.694,0,0,1-4.66,4.66h-.55a4.694,4.694,0,0,1-4.66-4.66v-.362a4.693,4.693,0,0,1,4.66-4.66h.55a4.694,4.694,0,0,1,4.66,4.66Zm18.352,21.651a17.627,17.627,0,0,1,15.536-8.4,14.858,14.858,0,0,1,8.951,2.923,14.283,14.283,0,0,1,5.022,6.484,18.822,18.822,0,0,1,5.029-5.659,19.653,19.653,0,0,1,11.781-3.748,13.679,13.679,0,0,1,11.6,5.666,19.146,19.146,0,0,1,3.661,11.881v26.3a3.909,3.909,0,0,1-1.234,2.924,4.137,4.137,0,0,1-2.97,1.193,4.063,4.063,0,0,1-4.11-4.117V569.648q0-5.766-2.058-8.636t-7.262-2.883q-8.046,0-13.149,8.777v27.4a3.889,3.889,0,0,1-1.24,2.923,4.138,4.138,0,0,1-2.97,1.194,4.077,4.077,0,0,1-4.11-4.117V569.648q0-5.766-2.052-8.636t-7.268-2.883q-8.046,0-13.155,8.777v27.4a3.882,3.882,0,0,1-1.234,2.923,4.138,4.138,0,0,1-2.97,1.194,4.063,4.063,0,0,1-4.11-4.117V555.119a4.156,4.156,0,0,1,1.187-2.97,3.92,3.92,0,0,1,2.923-1.227,4.2,4.2,0,0,1,4.2,4.2Zm72.073-3.741A4.07,4.07,0,0,1,622.8,552.1a4.318,4.318,0,0,1,5.934,0,4.064,4.064,0,0,1,1.187,3.017V594.31a3.943,3.943,0,0,1-1.187,2.923,4.284,4.284,0,0,1-5.934,0,3.95,3.95,0,0,1-1.194-2.924Zm9.139-17.909a4.694,4.694,0,0,1-4.66,4.66H625.5a4.694,4.694,0,0,1-4.66-4.66v-.362a4.693,4.693,0,0,1,4.66-4.66h.543a4.693,4.693,0,0,1,4.66,4.66Zm44.575,56.919a3.64,3.64,0,0,1-1.147,2.742,3.9,3.9,0,0,1-2.789,1.1h-28.5a6.7,6.7,0,0,1-4.063-1.234,4.07,4.07,0,0,1-1.69-3.48,5.672,5.672,0,0,1,1.455-3.882L664.9,559.141H641.783a3.754,3.754,0,0,1-3.842-3.835,3.869,3.869,0,0,1,1.1-2.8,3.668,3.668,0,0,1,2.742-1.14h27.672a5.225,5.225,0,0,1,3.835,1.422,4.8,4.8,0,0,1,1.469,3.647,5.76,5.76,0,0,1-1.281,3.788L647.905,590.2h23.468a3.9,3.9,0,0,1,3.936,3.929m12.78-16.535a15.449,15.449,0,0,0,4.653,9.863q3.916,3.647,10.969,3.654a26.171,26.171,0,0,0,11.781-2.373,6.588,6.588,0,0,1,2.836-.824,3.353,3.353,0,0,1,2.28,1.012,3,3,0,0,1,1.1,2.28,3.594,3.594,0,0,1-1.965,3.426c-1.3.67-2.481,1.294-3.513,1.784a25.6,25.6,0,0,1-3.353,1.28,34.617,34.617,0,0,1-9.5,1.18q-11.238,0-17.433-6.3t-6.216-17.9q0-10.057,5.2-16.723,5.854-7.482,16.635-7.489,10.225,0,16.166,6.946,5.592,6.477,5.578,16.092a4.083,4.083,0,0,1-1.146,2.923,4.024,4.024,0,0,1-3.058,1.187Zm13.41-20.115a12.476,12.476,0,0,0-11.875,7.215,14.337,14.337,0,0,0-1.556,6.122h26.955a13.883,13.883,0,0,0-4.754-10.225,13.049,13.049,0,0,0-8.77-3.111" transform="translate(-56.458 -18.751)" fill="#035ea8"/>
    <path id="Path_8428" data-name="Path 8428" d="M211.216,490.431a8.771,8.771,0,0,0-7.114-2.481L185.763,489.9a21.148,21.148,0,0,0-41.645,4.439l-16.843,1.8a8.824,8.824,0,0,0-7.818,9.675l5.9,53.373a3.737,3.737,0,0,0,7.429-.825l-5.894-53.339a1.341,1.341,0,0,1,1.173-1.448l76.827-8.187a1.341,1.341,0,0,1,1.455,1.435l-7,75.579a1.341,1.341,0,0,1-1.341,1.2h-55.7a1.341,1.341,0,0,1-1.147-2.011l31.728-34.5.449,10.849,6.558-7.134-.67-16.126-16.092.67-6.558,7.134,10.842-.463-31.909,34.7a3.822,3.822,0,0,0-.262.315,8.8,8.8,0,0,0,7.094,14.007h55.726a8.764,8.764,0,0,0,8.764-7.986l7-75.58a8.791,8.791,0,0,0-2.615-7.047Zm-45.957-10.165a14.932,14.932,0,0,1,14.081,10.319l-28.832,3.078a14.845,14.845,0,0,1,14.751-13.4Z" transform="translate(0)" fill="#035ea8"/>
  </g>
</svg>
